<svg width="520" height="361" viewBox="0 0 520 361" fill="none" xmlns="http://www.w3.org/2000/svg">
<path d="M131.088 193.108C136.806 193.108 141.441 188.473 141.441 182.755C141.441 177.037 136.806 172.402 131.088 172.402C125.37 172.402 120.735 177.037 120.735 182.755C120.735 188.473 125.37 193.108 131.088 193.108Z" fill="#CBDBFF"/>
<path d="M95.657 308.399C99.2006 308.399 102.073 305.527 102.073 301.983C102.073 298.44 99.2006 295.567 95.657 295.567C92.1134 295.567 89.2407 298.44 89.2407 301.983C89.2407 305.527 92.1134 308.399 95.657 308.399Z" fill="#CBDBFF"/>
<path d="M292.445 10.1232H213.709V11.2479H292.445V10.1232Z" fill="#CBDBFF"/>
<path d="M236.205 0H235.08V10.4043H236.205V0Z" fill="#CBDBFF"/>
<path d="M270.512 0H269.387V10.4043H270.512V0Z" fill="#CBDBFF"/>
<path d="M419.547 282.323H340.811V283.448H419.547V282.323Z" fill="#CBDBFF"/>
<path d="M363.307 272.2H362.182V282.605H363.307V272.2Z" fill="#CBDBFF"/>
<path d="M397.613 272.2H396.488V282.605H397.613V272.2Z" fill="#CBDBFF"/>
<path d="M423.483 110.792H344.748V111.917H423.483V110.792Z" fill="#CBDBFF"/>
<path d="M367.244 100.669H366.119V111.073H367.244V100.669Z" fill="#CBDBFF"/>
<path d="M401.55 100.669H400.425V111.073H401.55V100.669Z" fill="#CBDBFF"/>
<path d="M423.483 70.2996H344.748V71.4244H423.483V70.2996Z" fill="#CBDBFF"/>
<path d="M367.244 60.1765H366.119V70.5809H367.244V60.1765Z" fill="#CBDBFF"/>
<path d="M401.55 60.1765H400.425V70.5809H401.55V60.1765Z" fill="#CBDBFF"/>
<path d="M250.828 75.9236H172.092V77.0484H250.828V75.9236Z" fill="#CBDBFF"/>
<path d="M194.588 65.8005H193.463V76.2048H194.588V65.8005Z" fill="#CBDBFF"/>
<path d="M228.894 65.8005H227.769V76.2048H228.894V65.8005Z" fill="#CBDBFF"/>
<path d="M193.463 49.491H114.728V50.6158H193.463V49.491Z" fill="#CBDBFF"/>
<path d="M137.223 39.3678H136.099V49.7721H137.223V39.3678Z" fill="#CBDBFF"/>
<path d="M171.53 39.3678H170.405V49.7721H171.53V39.3678Z" fill="#CBDBFF"/>
<path d="M158.032 153.534H79.2964V154.659H158.032V153.534Z" fill="#CBDBFF"/>
<path d="M101.793 143.411H100.668V153.816H101.793V143.411Z" fill="#CBDBFF"/>
<path d="M136.098 143.411H134.974V153.816H136.098V143.411Z" fill="#CBDBFF"/>
<path d="M118.664 268.263H39.9285V269.388H118.664V268.263Z" fill="#CBDBFF"/>
<path d="M62.4246 258.14H61.2998V268.545H62.4246V258.14Z" fill="#CBDBFF"/>
<path d="M96.7308 258.14H95.606V268.545H96.7308V258.14Z" fill="#CBDBFF"/>
<path d="M490.971 221.022H412.236V222.147H490.971V221.022Z" fill="#CBDBFF"/>
<path d="M467.913 149.035H389.177V150.16H467.913V149.035Z" fill="#CBDBFF"/>
<path d="M412.236 149.879H411.111V160.283H412.236V149.879Z" fill="#CBDBFF"/>
<path d="M86.6074 64.6757H7.87183V65.8005H86.6074V64.6757Z" fill="#CBDBFF"/>
<path d="M65.2366 65.5193H64.1118V75.9236H65.2366V65.5193Z" fill="#CBDBFF"/>
<path d="M30.93 65.5193H29.8052V75.9236H30.93V65.5193Z" fill="#CBDBFF"/>
<path d="M91.669 212.024H12.9333V213.149H91.669V212.024Z" fill="#CBDBFF"/>
<path d="M70.2979 212.867H69.1731V223.272H70.2979V212.867Z" fill="#CBDBFF"/>
<path d="M35.9917 212.867H34.8669V223.272H35.9917V212.867Z" fill="#CBDBFF"/>
<path d="M339.686 28.1199H260.951V29.2447H339.686V28.1199Z" fill="#CBDBFF"/>
<path d="M318.315 28.9635H317.19V39.3678H318.315V28.9635Z" fill="#CBDBFF"/>
<path d="M284.009 28.9635H282.884V39.3678H284.009V28.9635Z" fill="#CBDBFF"/>
<path d="M118.664 106.293H39.9285V107.418H118.664V106.293Z" fill="#CBDBFF"/>
<path d="M62.4246 96.1699H61.2998V106.574H62.4246V96.1699Z" fill="#CBDBFF"/>
<path d="M96.7308 96.1699H95.606V106.574H96.7308V96.1699Z" fill="#CBDBFF"/>
<path d="M131.318 95.3263V360.215H376.523V95.3263H131.318ZM253.92 114.448C252.252 114.448 250.621 113.953 249.234 113.026C247.846 112.099 246.765 110.782 246.127 109.24C245.488 107.699 245.321 106.003 245.647 104.366C245.972 102.73 246.776 101.227 247.955 100.047C249.135 98.867 250.638 98.0635 252.275 97.738C253.911 97.4125 255.607 97.5796 257.149 98.2181C258.69 98.8566 260.008 99.9378 260.935 101.325C261.862 102.712 262.356 104.343 262.356 106.012C262.356 108.249 261.468 110.395 259.886 111.977C258.304 113.559 256.158 114.448 253.92 114.448Z" fill="#3F3D56"/>
<path d="M20.9521 337.606C24.8405 351.979 38.1591 360.882 38.1591 360.882C38.1591 360.882 45.1735 346.479 41.285 332.105C37.3966 317.731 24.078 308.829 24.078 308.829C24.078 308.829 17.0637 323.232 20.9521 337.606Z" fill="#3F3D56"/>
<path d="M26.6658 334.516C37.3357 344.903 38.6389 360.87 38.6389 360.87C38.6389 360.87 22.6429 359.996 11.9731 349.61C1.30324 339.223 0 323.256 0 323.256C0 323.256 15.996 324.13 26.6658 334.516Z" fill="#376CE2"/>
<path d="M520 356H9V361H520V356Z" fill="#2F2E41"/>
<path d="M107.979 324.975C107.976 322.482 107.221 320.048 105.813 317.992C104.406 315.935 102.41 314.35 100.088 313.445C102.778 312.4 105.018 310.447 106.42 307.925C107.822 305.403 108.299 302.469 107.767 299.633C107.235 296.796 105.729 294.235 103.508 292.392C101.287 290.549 98.4921 289.54 95.6062 289.54C92.7202 289.54 89.9251 290.549 87.7044 292.392C85.4836 294.235 83.9771 296.796 83.4453 299.633C82.9135 302.469 83.39 305.403 84.7923 307.925C86.1946 310.447 88.4345 312.4 91.1245 313.445C88.8004 314.348 86.8033 315.932 85.3951 317.989C83.9869 320.046 83.2334 322.481 83.2334 324.975C83.2334 327.468 83.9869 329.903 85.3951 331.96C86.8033 334.017 88.8004 335.601 91.1245 336.504C88.4345 337.549 86.1946 339.502 84.7923 342.024C83.39 344.546 82.9135 347.48 83.4453 350.316C83.9771 353.153 85.4836 355.714 87.7044 357.557C89.9251 359.4 92.7202 360.409 95.6062 360.409C98.4921 360.409 101.287 359.4 103.508 357.557C105.729 355.714 107.235 353.153 107.767 350.316C108.299 347.48 107.822 344.546 106.42 342.024C105.018 339.502 102.778 337.549 100.088 336.504C102.41 335.599 104.406 334.014 105.813 331.957C107.221 329.901 107.976 327.467 107.979 324.975ZM84.3582 301.916C84.3564 299.8 84.9516 297.726 86.0754 295.933C87.1993 294.14 88.8061 292.701 90.7113 291.78C92.6166 290.859 94.743 290.494 96.8462 290.727C98.9494 290.961 100.944 291.783 102.601 293.099C104.258 294.415 105.511 296.171 106.214 298.167C106.918 300.163 107.044 302.317 106.579 304.381C106.113 306.445 105.075 308.336 103.583 309.837C102.091 311.338 100.206 312.387 98.1442 312.865C96.4703 312.514 94.742 312.514 93.0681 312.865C90.5943 312.289 88.3876 310.895 86.8064 308.907C85.2252 306.92 84.3625 304.456 84.3582 301.916ZM106.854 348.033C106.856 350.149 106.261 352.223 105.137 354.016C104.013 355.809 102.406 357.248 100.501 358.169C98.5957 359.09 96.4694 359.455 94.3661 359.222C92.2629 358.988 90.2681 358.167 88.611 356.85C86.9539 355.534 85.7016 353.778 84.9981 351.782C84.2945 349.786 84.1682 347.632 84.6337 345.568C85.0992 343.504 86.1376 341.613 87.6295 340.112C89.1215 338.611 91.0065 337.562 93.0681 337.084C94.742 337.435 96.4703 337.435 98.1442 337.084C100.618 337.66 102.825 339.054 104.406 341.042C105.987 343.029 106.85 345.493 106.854 348.033ZM98.1442 335.923C96.4703 335.572 94.742 335.572 93.0681 335.923C90.5923 335.352 88.3831 333.958 86.8013 331.97C85.2194 329.981 84.3582 327.515 84.3582 324.975C84.3582 322.434 85.2194 319.968 86.8013 317.979C88.3831 315.991 90.5923 314.597 93.0681 314.026C94.742 314.377 96.4703 314.377 98.1442 314.026C100.62 314.597 102.829 315.991 104.411 317.979C105.993 319.968 106.854 322.434 106.854 324.975C106.854 327.515 105.993 329.981 104.411 331.97C102.829 333.958 100.62 335.352 98.1442 335.923Z" fill="#3F3D56"/>
<path d="M287.383 150.722H158.594C157.55 150.722 156.549 150.308 155.811 149.569C155.072 148.831 154.658 147.83 154.658 146.786C154.658 145.742 155.072 144.74 155.811 144.002C156.549 143.264 157.55 142.849 158.594 142.849H287.383C288.428 142.849 289.429 143.264 290.167 144.002C290.905 144.74 291.32 145.742 291.32 146.786C291.32 147.83 290.905 148.831 290.167 149.569C289.429 150.308 288.428 150.722 287.383 150.722Z" fill="#CBDBFF"/>
<path d="M287.383 191.215H158.594C157.55 191.215 156.549 190.8 155.811 190.062C155.072 189.324 154.658 188.322 154.658 187.278C154.658 186.234 155.072 185.233 155.811 184.495C156.549 183.756 157.55 183.341 158.594 183.341H287.383C288.428 183.341 289.429 183.756 290.167 184.495C290.905 185.233 291.32 186.234 291.32 187.278C291.32 188.322 290.905 189.324 290.167 190.062C289.429 190.8 288.428 191.215 287.383 191.215Z" fill="#CBDBFF"/>
<path d="M287.383 231.708H158.594C157.55 231.708 156.549 231.293 155.811 230.555C155.072 229.816 154.658 228.815 154.658 227.771C154.658 226.727 155.072 225.725 155.811 224.987C156.549 224.249 157.55 223.834 158.594 223.834H287.383C288.428 223.834 289.429 224.249 290.167 224.987C290.905 225.725 291.32 226.727 291.32 227.771C291.32 228.815 290.905 229.816 290.167 230.555C289.429 231.293 288.428 231.708 287.383 231.708Z" fill="#CBDBFF"/>
<path d="M287.383 272.2H158.594C157.55 272.2 156.549 271.785 155.811 271.047C155.072 270.309 154.658 269.308 154.658 268.263C154.658 267.219 155.072 266.218 155.811 265.48C156.549 264.741 157.55 264.327 158.594 264.327H287.383C288.428 264.327 289.429 264.741 290.167 265.48C290.905 266.218 291.32 267.219 291.32 268.263C291.32 269.308 290.905 270.309 290.167 271.047C289.429 271.785 288.428 272.2 287.383 272.2Z" fill="#CBDBFF"/>
<path d="M287.383 312.693H158.594C157.55 312.693 156.549 312.278 155.811 311.54C155.072 310.802 154.658 309.8 154.658 308.756C154.658 307.712 155.072 306.711 155.811 305.972C156.549 305.234 157.55 304.819 158.594 304.819H287.383C288.428 304.819 289.429 305.234 290.167 305.972C290.905 306.711 291.32 307.712 291.32 308.756C291.32 309.8 290.905 310.802 290.167 311.54C289.429 312.278 288.428 312.693 287.383 312.693Z" fill="#CBDBFF"/>
<path d="M264.887 150.722H158.032C156.988 150.722 155.987 150.308 155.248 149.569C154.51 148.831 154.095 147.83 154.095 146.786C154.095 145.742 154.51 144.74 155.248 144.002C155.987 143.264 156.988 142.849 158.032 142.849H264.887C265.932 142.849 266.933 143.264 267.671 144.002C268.409 144.74 268.824 145.742 268.824 146.786C268.824 147.83 268.409 148.831 267.671 149.569C266.933 150.308 265.932 150.722 264.887 150.722Z" fill="#376CE2"/>
<path d="M231.706 191.215H158.032C156.988 191.215 155.987 190.8 155.248 190.062C154.51 189.324 154.095 188.322 154.095 187.278C154.095 186.234 154.51 185.233 155.248 184.495C155.987 183.756 156.988 183.341 158.032 183.341H231.706C232.75 183.341 233.751 183.756 234.49 184.495C235.228 185.233 235.643 186.234 235.643 187.278C235.643 188.322 235.228 189.324 234.49 190.062C233.751 190.8 232.75 191.215 231.706 191.215Z" fill="#376CE2"/>
<path d="M191.213 231.708H158.032C156.988 231.708 155.987 231.293 155.248 230.555C154.51 229.816 154.095 228.815 154.095 227.771C154.095 226.727 154.51 225.725 155.248 224.987C155.987 224.249 156.988 223.834 158.032 223.834H191.213C192.258 223.834 193.259 224.249 193.997 224.987C194.735 225.725 195.15 226.727 195.15 227.771C195.15 228.815 194.735 229.816 193.997 230.555C193.259 231.293 192.258 231.708 191.213 231.708Z" fill="#376CE2"/>
<path d="M275.011 272.2H158.032C156.988 272.2 155.987 271.785 155.248 271.047C154.51 270.309 154.095 269.308 154.095 268.263C154.095 267.219 154.51 266.218 155.248 265.48C155.987 264.741 156.988 264.327 158.032 264.327H275.011C276.055 264.327 277.056 264.741 277.794 265.48C278.533 266.218 278.947 267.219 278.947 268.263C278.947 269.308 278.533 270.309 277.794 271.047C277.056 271.785 276.055 272.2 275.011 272.2Z" fill="#376CE2"/>
<path d="M249.14 312.693H158.032C156.988 312.693 155.987 312.278 155.248 311.54C154.51 310.802 154.095 309.8 154.095 308.756C154.095 307.712 154.51 306.711 155.248 305.972C155.987 305.234 156.988 304.819 158.032 304.819H249.14C250.184 304.819 251.186 305.234 251.924 305.972C252.662 306.711 253.077 307.712 253.077 308.756C253.077 309.8 252.662 310.802 251.924 311.54C251.186 312.278 250.184 312.693 249.14 312.693Z" fill="#376CE2"/>
<path d="M340.811 142.849H339.686V150.722H340.811V142.849Z" fill="#376CE2"/>
<path d="M349.247 151.285C348.357 151.285 347.487 151.021 346.747 150.527C346.007 150.032 345.431 149.33 345.09 148.507C344.75 147.685 344.66 146.781 344.834 145.908C345.008 145.035 345.436 144.234 346.065 143.604C346.695 142.975 347.496 142.547 348.369 142.373C349.242 142.199 350.146 142.288 350.969 142.629C351.791 142.97 352.493 143.546 352.988 144.286C353.482 145.026 353.746 145.896 353.746 146.786C353.745 147.979 353.27 149.122 352.427 149.966C351.583 150.809 350.44 151.283 349.247 151.285ZM349.247 143.411C348.579 143.411 347.927 143.609 347.372 143.98C346.817 144.351 346.385 144.878 346.129 145.494C345.874 146.111 345.807 146.789 345.937 147.444C346.067 148.099 346.389 148.7 346.861 149.172C347.333 149.644 347.934 149.965 348.588 150.095C349.243 150.225 349.921 150.159 350.538 149.903C351.155 149.648 351.682 149.215 352.052 148.66C352.423 148.105 352.621 147.453 352.621 146.786C352.62 145.891 352.264 145.033 351.632 144.401C350.999 143.768 350.141 143.412 349.247 143.411Z" fill="#376CE2"/>
<path d="M340.811 183.341H339.686V191.215H340.811V183.341Z" fill="#376CE2"/>
<path d="M349.247 191.777C348.357 191.777 347.487 191.514 346.747 191.019C346.007 190.525 345.431 189.822 345.09 189C344.75 188.178 344.66 187.273 344.834 186.401C345.008 185.528 345.436 184.726 346.065 184.097C346.695 183.468 347.496 183.039 348.369 182.866C349.242 182.692 350.146 182.781 350.969 183.122C351.791 183.462 352.493 184.039 352.988 184.779C353.482 185.519 353.746 186.388 353.746 187.278C353.745 188.471 353.27 189.615 352.427 190.458C351.583 191.302 350.44 191.776 349.247 191.777ZM349.247 183.904C348.579 183.904 347.927 184.102 347.372 184.473C346.817 184.843 346.385 185.37 346.129 185.987C345.874 186.604 345.807 187.282 345.937 187.937C346.067 188.591 346.389 189.192 346.861 189.664C347.333 190.136 347.934 190.458 348.588 190.588C349.243 190.718 349.921 190.651 350.538 190.396C351.155 190.14 351.682 189.708 352.052 189.153C352.423 188.598 352.621 187.946 352.621 187.278C352.62 186.384 352.264 185.526 351.632 184.893C350.999 184.261 350.141 183.905 349.247 183.904Z" fill="#376CE2"/>
<path d="M340.811 223.834H339.686V231.708H340.811V223.834Z" fill="#376CE2"/>
<path d="M349.247 232.27C348.357 232.27 347.487 232.006 346.747 231.512C346.007 231.017 345.431 230.315 345.09 229.493C344.75 228.671 344.66 227.766 344.834 226.893C345.008 226.02 345.436 225.219 346.065 224.589C346.695 223.96 347.496 223.532 348.369 223.358C349.242 223.185 350.146 223.274 350.969 223.614C351.791 223.955 352.493 224.531 352.988 225.271C353.482 226.011 353.746 226.881 353.746 227.771C353.745 228.964 353.27 230.107 352.427 230.951C351.583 231.794 350.44 232.269 349.247 232.27ZM349.247 224.396C348.579 224.396 347.927 224.594 347.372 224.965C346.817 225.336 346.385 225.863 346.129 226.48C345.874 227.096 345.807 227.775 345.937 228.429C346.067 229.084 346.389 229.685 346.861 230.157C347.333 230.629 347.934 230.95 348.588 231.08C349.243 231.211 349.921 231.144 350.538 230.888C351.155 230.633 351.682 230.2 352.052 229.646C352.423 229.091 352.621 228.438 352.621 227.771C352.62 226.876 352.264 226.019 351.632 225.386C350.999 224.753 350.141 224.397 349.247 224.396Z" fill="#376CE2"/>
<path d="M340.811 264.327H339.686V272.2H340.811V264.327Z" fill="#376CE2"/>
<path d="M349.247 272.763C348.357 272.763 347.487 272.499 346.747 272.004C346.007 271.51 345.431 270.807 345.09 269.985C344.75 269.163 344.66 268.258 344.834 267.386C345.008 266.513 345.436 265.711 346.065 265.082C346.695 264.453 347.496 264.024 348.369 263.851C349.242 263.677 350.146 263.766 350.969 264.107C351.791 264.447 352.493 265.024 352.988 265.764C353.482 266.504 353.746 267.374 353.746 268.263C353.745 269.456 353.27 270.6 352.427 271.443C351.583 272.287 350.44 272.761 349.247 272.763ZM349.247 264.889C348.579 264.889 347.927 265.087 347.372 265.458C346.817 265.828 346.385 266.356 346.129 266.972C345.874 267.589 345.807 268.267 345.937 268.922C346.067 269.576 346.389 270.178 346.861 270.649C347.333 271.121 347.934 271.443 348.588 271.573C349.243 271.703 349.921 271.636 350.538 271.381C351.155 271.126 351.682 270.693 352.052 270.138C352.423 269.583 352.621 268.931 352.621 268.263C352.62 267.369 352.264 266.511 351.632 265.878C350.999 265.246 350.141 264.89 349.247 264.889Z" fill="#376CE2"/>
<path d="M340.811 304.819H339.686V312.693H340.811V304.819Z" fill="#376CE2"/>
<path d="M349.247 313.255C348.357 313.255 347.487 312.991 346.747 312.497C346.007 312.003 345.431 311.3 345.09 310.478C344.75 309.656 344.66 308.751 344.834 307.878C345.008 307.006 345.436 306.204 346.065 305.575C346.695 304.945 347.496 304.517 348.369 304.343C349.242 304.17 350.146 304.259 350.969 304.599C351.791 304.94 352.493 305.517 352.988 306.256C353.482 306.996 353.746 307.866 353.746 308.756C353.745 309.949 353.27 311.092 352.427 311.936C351.583 312.779 350.44 313.254 349.247 313.255ZM349.247 305.382C348.579 305.382 347.927 305.58 347.372 305.95C346.817 306.321 346.385 306.848 346.129 307.465C345.874 308.081 345.807 308.76 345.937 309.414C346.067 310.069 346.389 310.67 346.861 311.142C347.333 311.614 347.934 311.935 348.588 312.066C349.243 312.196 349.921 312.129 350.538 311.874C351.155 311.618 351.682 311.186 352.052 310.631C352.423 310.076 352.621 309.423 352.621 308.756C352.62 307.861 352.264 307.004 351.632 306.371C350.999 305.738 350.141 305.383 349.247 305.382Z" fill="#376CE2"/>
<path d="M349.247 149.035C350.49 149.035 351.497 148.028 351.497 146.786C351.497 145.543 350.49 144.536 349.247 144.536C348.005 144.536 346.998 145.543 346.998 146.786C346.998 148.028 348.005 149.035 349.247 149.035Z" fill="#376CE2"/>
<path d="M349.247 270.513C350.49 270.513 351.497 269.506 351.497 268.263C351.497 267.021 350.49 266.014 349.247 266.014C348.005 266.014 346.998 267.021 346.998 268.263C346.998 269.506 348.005 270.513 349.247 270.513Z" fill="#376CE2"/>
<path d="M349.247 311.006C350.49 311.006 351.497 309.998 351.497 308.756C351.497 307.514 350.49 306.506 349.247 306.506C348.005 306.506 346.998 307.514 346.998 308.756C346.998 309.998 348.005 311.006 349.247 311.006Z" fill="#376CE2"/>
<path d="M253.921 109.949C256.095 109.949 257.857 108.186 257.857 106.012C257.857 103.838 256.095 102.075 253.921 102.075C251.746 102.075 249.984 103.838 249.984 106.012C249.984 108.186 251.746 109.949 253.921 109.949Z" fill="#3F3D56"/>
<path d="M439.461 181.347H438.113V193.811H439.461V181.347Z" fill="#CBDBFF"/>
<path d="M480.555 181.347H479.208V193.811H480.555V181.347Z" fill="#CBDBFF"/>
<path d="M453.608 108.253H452.261V120.716H453.608V108.253Z" fill="#CBDBFF"/>
<path d="M495.791 185.375V202.066C495.791 202.066 499.809 228.956 499.809 252.446C499.809 275.936 493.319 330.643 493.319 330.643C493.319 330.643 480.337 335.279 479.41 328.17C478.483 321.061 476.01 283.354 476.01 277.79C476.01 272.227 465.193 229.883 465.193 229.883L458.393 276.863C458.393 276.863 460.556 332.497 458.393 334.043C456.229 335.588 445.721 338.37 444.484 335.588C443.248 332.806 436.757 273.154 436.757 273.154C436.757 273.154 431.503 195.266 434.594 190.63C437.685 185.994 440.466 182.285 440.466 182.285C440.466 182.285 484.665 171.467 495.791 185.375Z" fill="#2F2E41"/>
<path d="M491.774 328.788L492.549 333.826C492.808 335.545 492.978 337.277 493.055 339.013C493.176 341.544 493.597 345.444 495.04 346.062C497.203 346.989 511.246 358.832 501.355 359.45C491.465 360.068 486.517 361.136 483.587 358.862C480.124 356.173 484.047 357.39 482.501 357.39C480.956 357.39 479.102 357.39 478.483 354.917C477.865 352.445 479.411 348.118 479.411 348.118V328.788H491.774Z" fill="#2F2E41"/>
<path d="M445.623 328.546L444.848 333.584C444.589 335.303 444.42 337.034 444.342 338.771C444.221 341.302 443.8 345.202 442.358 345.82C440.194 346.747 426.151 358.59 436.042 359.208C445.932 359.826 450.88 360.894 453.81 358.62C457.274 355.931 453.35 357.148 454.896 357.148C456.441 357.148 458.296 357.148 458.914 354.675C459.532 352.203 457.987 347.876 457.987 347.876V328.546H445.623Z" fill="#2F2E41"/>
<path d="M454.375 51.2349C454.375 51.2349 459.629 64.2163 463.338 66.3798C467.047 68.5434 465.193 78.434 465.193 78.434L455.92 91.4153H448.503L439.539 75.9613C439.539 75.9613 438.921 65.7617 437.067 63.2891C435.212 60.8164 454.375 51.2349 454.375 51.2349Z" fill="#FFB9B9"/>
<path opacity="0.1" d="M454.375 51.2349C454.375 51.2349 459.629 64.2163 463.338 66.3798C467.047 68.5434 465.193 78.434 465.193 78.434L455.92 91.4153H448.503L439.539 75.9613C439.539 75.9613 438.921 65.7617 437.067 63.2891C435.212 60.8164 454.375 51.2349 454.375 51.2349Z" fill="black"/>
<path d="M462.102 77.8157L476.01 80.9065L486.21 183.521C486.21 183.521 480.647 184.448 475.083 191.866C469.52 199.284 462.72 198.048 459.32 196.193C455.92 194.339 442.321 189.084 442.012 186.921C441.703 184.757 442.63 146.74 442.63 146.74L433.976 87.3972L438.303 80.9065H446.03L452.211 86.1609L462.102 77.8157Z" fill="#376CE2"/>
<path d="M441.084 67.3071C449.961 67.3071 457.156 60.1113 457.156 51.2349C457.156 42.3585 449.961 35.1628 441.084 35.1628C432.208 35.1628 425.012 42.3585 425.012 51.2349C425.012 60.1113 432.208 67.3071 441.084 67.3071Z" fill="#FFB9B9"/>
<path d="M464.266 72.5614C464.266 72.5614 494.555 75.6522 497.337 82.1429C500.119 88.6335 495.483 117.378 495.483 117.378C495.483 117.378 506.609 142.413 506.3 148.286C505.991 154.158 516.809 194.339 505.064 189.703C493.319 185.066 497.028 173.012 491.156 181.666C485.283 190.321 482.81 189.084 482.81 189.084C482.81 189.084 476.938 198.666 475.083 197.739C473.229 196.811 471.993 189.702 476.011 186.303C480.029 182.903 479.41 177.03 471.683 165.903C463.957 154.776 455.92 96.3605 460.557 87.3972C465.193 78.4339 464.266 72.5614 464.266 72.5614Z" fill="#575A89"/>
<path d="M495.792 191.248L490.537 196.193L484.046 191.866L486.828 185.375L495.792 191.248Z" fill="#FFB9B9"/>
<path d="M442.012 77.8157C442.012 77.8157 418.521 86.47 418.521 95.7423C418.521 105.015 432.739 145.504 432.739 145.504C432.739 145.504 432.739 156.013 432.121 158.485C431.503 160.958 421.778 182.524 430.266 184.448C435.565 185.649 439.918 188.804 440.312 193.257C440.779 198.544 436.731 205.218 437.066 206.393C437.684 208.556 441.393 211.647 441.084 210.102C440.775 208.556 443.557 186.303 447.884 176.412C452.211 166.522 446.03 100.069 444.793 91.4152C444.197 86.8207 443.267 82.2756 442.012 77.8157Z" fill="#575A89"/>
<path d="M429.649 190.629L435.212 203.92L439.385 195.421L434.593 184.757L429.649 190.629Z" fill="#FFB9B9"/>
<path d="M459.191 61.1923C459.191 61.1923 464.266 63.2891 467.356 63.2891C470.447 63.2891 483.119 69.7797 478.792 73.7978C474.465 77.8158 467.975 78.743 464.884 84.6155C461.793 90.488 460.248 91.4153 460.248 91.4153L454.745 84.0234C454.745 84.0234 462.411 75.3431 462.102 72.5614C461.793 69.7797 459.191 61.1923 459.191 61.1923Z" fill="#376CE2"/>
<path d="M438.704 68.6236C438.704 68.6236 434.903 70.0888 433.976 72.5614C433.048 75.034 427.176 79.6702 429.649 80.9065C432.121 82.1428 442.939 87.0881 445.102 88.0154C447.266 88.9426 451.298 85.3847 451.298 85.3847C451.298 85.3847 445.875 82.2974 445.875 80.1338C445.875 77.9703 438.704 68.6236 438.704 68.6236Z" fill="#376CE2"/>
<path d="M425.94 91.4152L418.522 93.2697C418.522 93.2697 408.322 139.013 411.413 150.449C414.504 161.885 429.03 196.193 429.03 196.193L438.303 185.375C438.303 185.375 434.258 160.776 431.953 159.167C429.649 157.558 431.194 154.158 431.194 153.231C431.194 152.304 432.121 152.922 429.958 150.758C427.794 148.595 437.994 136.541 435.212 133.141C432.43 129.741 425.94 91.4152 425.94 91.4152Z" fill="#575A89"/>
<path opacity="0.1" d="M499.037 99.9149L494.555 83.0701C494.555 83.0701 506.609 91.7243 509.082 104.397C511.555 117.069 521.136 142.413 514.954 153.54C508.773 164.667 497.955 196.811 494.246 196.193C490.537 195.575 481.574 187.848 481.265 186.612C480.956 185.375 497.337 156.94 494.864 154.777C492.392 152.613 493.01 147.05 494.864 145.813C496.719 144.577 498.882 138.704 497.337 139.014C495.792 139.323 491.155 136.232 492.083 132.832C493.01 129.432 487.446 106.56 487.446 106.56L499.037 99.9149Z" fill="black"/>
<path d="M493.01 80.9065L497.337 82.1429C497.337 82.1429 509.391 90.7971 511.863 103.469C514.336 116.142 523.918 141.486 517.736 152.613C511.554 163.74 500.737 195.884 497.028 195.266C493.319 194.648 484.355 186.921 484.046 185.684C483.737 184.448 500.118 156.013 497.646 153.849C495.173 151.686 495.791 146.122 497.646 144.886C499.5 143.65 501.664 137.777 500.118 138.086C498.573 138.395 493.937 135.305 494.864 131.905C495.791 128.505 490.228 105.633 490.228 105.633L493.01 80.9065Z" fill="#575A89"/>
<path d="M453.557 36.7273L456.572 35.6311C456.572 35.6311 450.269 29.3282 441.499 29.8763L443.966 27.41C443.966 27.41 437.937 25.2177 432.456 30.9725C429.575 33.9976 426.241 37.5536 424.163 41.5593H420.935L422.282 44.254L417.567 46.9487L422.407 46.4647C421.948 48.7912 422.106 51.1971 422.865 53.4437L423.961 56.4581C423.961 56.4581 428.345 47.6888 428.345 46.5927V49.3331C428.345 49.3331 431.36 46.8667 431.36 45.2225L433.004 47.1408L433.826 44.1263L443.966 47.1408L442.322 44.6745L448.624 45.4966L446.158 42.4821C446.158 42.4821 453.283 46.0446 453.557 49.0591C453.831 52.0735 457.394 55.9101 457.394 55.9101L459.038 53.1697C459.038 53.1697 461.504 40.8379 453.557 36.7273Z" fill="#2F2E41"/>
<path d="M452.934 53.0118C454.237 53.0118 455.292 51.3529 455.292 49.3066C455.292 47.2603 454.237 45.6014 452.934 45.6014C451.632 45.6014 450.576 47.2603 450.576 49.3066C450.576 51.3529 451.632 53.0118 452.934 53.0118Z" fill="#FFB9B9"/>
</svg>
